<?xml version="1.0" standalone="no"?>
<!DOCTYPE svg PUBLIC "-//W3C//DTD SVG 20010904//EN"
 "http://www.w3.org/TR/2001/REC-SVG-20010904/DTD/svg10.dtd">
<svg version="1.0" xmlns="http://www.w3.org/2000/svg"
 width="1890.000000pt" height="1417.000000pt" viewBox="0 0 1890.000000 1417.000000"
 preserveAspectRatio="xMidYMid meet">

<g transform="translate(0.000000,1417.000000) scale(0.100000,-0.100000)"
fill="#000000" stroke="none">
<path d="M5113 8992 c-135 -46 -204 -87 -284 -167 -125 -125 -188 -254 -219
-451 -8 -46 -18 -70 -40 -94 -16 -17 -32 -47 -36 -66 -5 -26 -11 -34 -27 -34
-39 0 -107 -42 -151 -93 -24 -29 -74 -99 -111 -157 -58 -91 -97 -135 -295
-330 -235 -232 -284 -292 -321 -395 -30 -81 -32 -224 -5 -275 59 -112 148
-150 349 -150 110 0 120 -2 136 -22 13 -16 34 -24 77 -29 80 -10 228 -10 289
0 33 6 52 5 57 -2 10 -17 45 -216 68 -391 11 -87 23 -162 25 -166 3 -4 -111
-10 -253 -13 -346 -7 -426 -22 -454 -82 -10 -22 -17 -23 -105 -27 -92 -3 -95
-4 -124 -35 -51 -58 -51 -108 0 -166 l29 -32 1419 -3 c1287 -3 1421 -1 1449
13 59 31 80 104 49 165 -23 45 -62 60 -154 60 -79 0 -81 1 -96 30 -21 41 -40
49 -154 62 l-99 12 -6 39 c-4 22 -4 42 -2 44 3 3 19 0 37 -6 70 -24 109 -5
109 54 0 24 -9 45 -30 68 -16 19 -34 51 -39 73 -5 21 -13 49 -16 60 -6 19 8
30 117 94 254 150 393 263 438 355 77 159 -60 334 -359 460 -91 39 -359 125
-556 180 -71 20 -131 38 -133 39 -1 2 9 32 22 67 21 56 29 67 68 87 24 12 51
35 60 50 14 24 55 253 55 307 0 11 6 64 13 118 21 163 -11 340 -83 467 -63
110 -205 228 -344 285 -55 23 -87 29 -163 31 -88 3 -103 1 -207 -34z m324 -63
c114 -37 247 -139 309 -236 19 -28 46 -87 61 -130 23 -68 27 -94 27 -205 1
-69 -2 -129 -6 -133 -3 -4 -15 -2 -26 4 -15 8 -20 25 -25 88 -17 224 -128 413
-294 501 -74 39 -197 72 -267 72 -83 0 -193 -28 -268 -67 -5 -2 -8 -2 -8 0 0
14 102 62 207 97 133 46 175 47 290 9z m-108 -134 c220 -58 349 -228 376 -496
l7 -65 -35 -27 c-41 -31 -50 -55 -73 -201 l-17 -108 -19 50 c-12 31 -44 79
-84 123 -92 103 -144 192 -215 369 -34 85 -73 171 -86 192 -31 47 -72 65 -111
49 -61 -26 -227 -223 -288 -344 -24 -46 -25 -47 -47 -32 -12 8 -29 15 -39 15
-23 0 -23 13 2 92 52 168 235 351 386 387 60 14 183 12 243 -4z m-192 -236
c12 -24 34 -78 49 -119 15 -41 46 -114 70 -162 26 -54 40 -94 37 -107 -6 -25
12 -51 37 -51 10 0 25 -12 35 -26 9 -15 41 -52 70 -84 29 -31 58 -74 65 -95
11 -34 11 -40 -6 -52 -31 -23 -98 -16 -133 13 -42 35 -54 59 -61 118 -6 57
-28 78 -60 58 -21 -13 -64 -8 -87 10 -26 21 -56 4 -68 -37 -17 -57 -41 -91
-80 -109 -109 -52 -194 29 -195 184 l0 76 45 13 c52 15 114 9 190 -20 27 -10
55 -19 62 -19 17 0 34 35 27 53 -8 23 -78 47 -171 60 -79 10 -85 10 -113 -11
-36 -27 -36 -24 -9 31 61 119 233 334 260 325 7 -2 23 -24 36 -49z m-429 -327
c26 -26 39 -255 17 -289 -29 -44 -86 -37 -105 13 -6 14 -10 79 -10 144 0 111
1 120 22 134 30 21 54 20 76 -2z m1092 -92 c24 -24 24 -27 4 -149 -24 -149
-39 -172 -100 -157 -39 10 -43 40 -23 171 15 95 24 124 40 138 28 22 54 22 79
-3z m-1266 -62 c3 -13 6 -50 6 -84 0 -49 5 -69 26 -99 33 -49 21 -64 -36 -41
-50 20 -84 20 -100 1 -21 -25 -3 -52 43 -63 44 -12 121 -58 151 -91 22 -25 14
-56 -12 -46 -55 21 -138 36 -171 30 -97 -18 -124 -51 -253 -315 -84 -170 -120
-220 -180 -251 -33 -17 -39 -24 -36 -47 4 -35 37 -40 84 -13 19 12 37 21 40
21 3 0 3 -51 2 -112 l-3 -113 -121 1 c-171 2 -241 29 -283 111 -17 34 -13 144
8 205 33 96 67 138 301 368 208 205 236 237 319 361 50 75 106 151 126 168 43
37 80 41 89 9z m692 -125 c29 -91 84 -154 151 -172 48 -14 74 -14 108 -1 60
23 34 -55 -37 -113 -76 -62 -207 -117 -279 -117 -42 0 -143 56 -201 113 -51
50 -98 118 -112 163 -7 22 -6 22 35 7 46 -15 105 -10 149 12 29 16 83 71 99
103 15 28 78 32 87 5z m-445 -145 c10 -25 32 -69 50 -97 17 -29 30 -53 28 -55
-2 -2 -65 -29 -139 -60 -74 -32 -200 -91 -279 -132 -79 -42 -145 -73 -147 -71
-7 7 14 55 55 126 57 97 93 109 212 70 58 -19 69 -20 95 -8 37 18 59 58 50 92
-3 15 -23 45 -42 67 l-36 39 22 31 c12 17 30 30 43 30 12 0 29 5 37 10 23 15
31 8 51 -42z m863 -94 c-21 -62 -74 -168 -80 -161 -3 3 0 22 6 44 6 21 13 83
17 139 l6 101 34 -38 33 -37 -16 -48z m-163 -155 l-10 -24 0 26 c-1 14 2 29 6
33 12 12 14 -9 4 -35z m-559 -73 c4 -92 8 -109 35 -157 21 -37 45 -63 78 -84
45 -28 55 -30 144 -30 88 0 101 3 150 30 59 33 105 87 122 146 11 37 12 37 35
22 39 -25 68 -9 119 62 26 36 51 65 56 65 5 0 109 -29 231 -64 304 -88 538
-173 538 -196 0 -5 -4 -10 -8 -10 -20 0 -175 -157 -256 -259 -49 -61 -91 -111
-95 -111 -3 0 -24 7 -46 15 -58 21 -92 19 -105 -6 -16 -28 2 -47 56 -60 24 -6
44 -16 44 -21 0 -6 -14 -28 -31 -50 -18 -21 -51 -73 -74 -113 -28 -50 -67 -97
-115 -142 l-73 -68 6 55 c3 30 9 148 13 262 l7 207 -42 42 -41 42 -68 -6 c-37
-3 -116 -13 -177 -21 -149 -21 -399 -21 -531 1 -97 15 -107 15 -139 0 -51 -24
-70 -61 -68 -127 1 -30 29 -214 62 -409 33 -195 59 -356 58 -357 -1 -2 -25 0
-52 4 -59 9 -56 0 -85 232 -26 206 -53 348 -92 470 -31 100 -55 137 -82 127
-28 -11 -30 -37 -7 -100 12 -33 19 -63 15 -66 -3 -3 -80 -8 -170 -10 l-164 -3
6 118 c4 72 2 142 -5 178 -10 56 -10 60 22 115 l32 56 264 132 c222 112 396
191 422 193 4 0 8 -47 11 -104z m273 -4 c60 3 95 11 139 31 32 15 60 27 63 27
8 0 -10 -106 -24 -140 -30 -75 -91 -109 -193 -110 -122 0 -180 60 -180 186 l0
61 58 -29 c52 -27 64 -29 137 -26z m1361 -271 c93 -68 141 -146 129 -207 -15
-84 -137 -188 -413 -353 -105 -62 -177 -112 -183 -125 -9 -18 -6 -30 15 -61
14 -21 26 -51 26 -68 0 -22 10 -39 40 -66 22 -20 40 -40 40 -44 0 -15 -19 -5
-64 34 -42 37 -50 40 -72 31 -23 -11 -24 -15 -24 -107 0 -109 -10 -116 -36
-24 -18 64 -47 109 -69 109 -21 0 -51 -45 -80 -120 -33 -87 -50 -92 -39 -12
14 102 12 127 -13 130 -17 3 -38 -16 -94 -82 -67 -80 -89 -99 -89 -78 0 15 62
107 142 209 82 105 133 143 189 143 48 0 63 36 28 69 l-21 19 38 59 c62 98
245 334 319 412 64 68 172 161 186 161 3 0 24 -13 45 -29z m-900 -235 c22 -17
22 -55 3 -421 l-11 -210 -44 -81 c-24 -45 -44 -88 -44 -96 0 -16 -13 -20 -112
-34 -48 -6 -98 -42 -98 -70 0 -11 -37 -14 -195 -14 l-195 0 -9 24 c-5 13 -21
32 -36 43 -26 18 -29 32 -91 398 -35 209 -64 392 -64 407 0 46 28 57 107 41
158 -32 460 -27 668 11 95 18 98 18 121 2z m294 -802 c0 -8 -7 -14 -15 -14
-17 0 -18 2 -9 24 7 18 24 12 24 -10z m-1320 -95 c290 -19 235 -27 -195 -27
-421 0 -491 9 -220 27 177 12 244 12 415 0z m1455 -4 c77 -3 156 -9 175 -14
22 -6 -118 -9 -385 -9 -293 0 -411 3 -390 10 17 5 108 11 203 13 95 2 176 5
178 8 3 3 22 3 42 1 20 -2 100 -6 177 -9z m485 -125 c8 -14 8 -26 0 -40 -11
-20 -21 -20 -1413 -20 -1078 0 -1406 3 -1415 12 -7 7 -12 19 -12 28 0 9 5 21
12 28 9 9 337 12 1415 12 1392 0 1402 0 1413 -20z"/>
<path d="M5077 7778 c-12 -9 -18 -23 -15 -39 3 -22 9 -25 79 -33 85 -10 127
-3 136 21 11 29 -11 48 -58 49 -24 0 -62 4 -84 8 -28 5 -45 3 -58 -6z"/>
<path d="M12632 7888 c-57 -36 -283 -123 -425 -163 l-136 -38 34 -38 c48 -54
65 -91 65 -146 -1 -85 -38 -154 -347 -641 l-40 -63 -167 256 c-91 141 -166
260 -166 265 0 4 23 29 52 54 42 36 50 48 40 58 -10 10 -26 -1 -76 -52 l-64
-65 179 -270 c98 -148 179 -274 179 -280 0 -5 -9 -20 -18 -33 l-18 -24 -204
307 -203 307 79 79 79 79 -310 0 -310 -1 60 -52 c131 -113 140 -126 444 -597
l171 -265 0 -245 0 -245 -87 -82 -88 -82 295 0 295 0 -88 82 -87 82 0 245 0
245 299 479 c308 494 396 622 525 764 42 45 76 87 76 92 0 13 0 13 -38 -12z"/>
<path d="M12642 7755 c-118 -126 -193 -234 -506 -728 l-296 -468 0 -243 0
-243 90 -111 c50 -61 90 -113 90 -116 0 -3 -158 -6 -351 -6 -276 0 -350 -3
-347 -12 4 -10 92 -14 387 -16 l383 -2 -68 82 c-38 46 -88 106 -111 134 l-43
51 0 234 0 234 303 475 c330 519 352 551 469 681 57 64 79 95 76 110 -3 19
-13 11 -76 -56z"/>
<path d="M9409 7783 c10 -16 42 -50 70 -78 28 -27 51 -57 51 -66 0 -9 -41
-129 -90 -265 -50 -137 -93 -255 -95 -262 -3 -9 -28 5 -76 43 -40 31 -77 54
-83 52 -25 -8 -13 -34 32 -70 106 -85 105 -83 87 -118 l-17 -31 -26 23 c-15
13 -52 48 -83 77 -54 51 -57 53 -64 32 -12 -37 -52 -122 -84 -177 l-31 -51 51
-11 c60 -13 144 -48 159 -66 8 -9 1 -42 -26 -121 -130 -388 -253 -579 -458
-713 l-79 -51 363 0 362 0 -47 52 c-118 131 -145 213 -114 348 16 74 120 390
128 390 4 0 20 -13 35 -29 l28 -29 -35 -93 c-78 -208 -100 -343 -73 -446 17
-69 44 -117 118 -210 l50 -63 -371 0 c-369 0 -372 0 -361 -20 10 -19 21 -20
405 -20 217 0 395 2 395 6 0 3 -24 36 -54 73 -152 191 -177 270 -140 449 17
86 85 274 100 279 8 3 121 -150 195 -264 19 -29 37 -53 40 -53 3 0 28 32 55
72 49 72 209 248 225 248 5 0 15 -12 23 -27 13 -27 12 -29 -61 -111 -96 -108
-195 -241 -187 -253 7 -12 34 -12 34 1 0 15 144 201 194 249 l45 44 10 -24
c41 -95 149 -394 145 -401 -3 -4 -48 -44 -100 -88 l-95 -80 367 0 c310 0 366
2 354 13 -8 8 -58 48 -110 89 l-95 75 -128 349 c-70 192 -127 354 -127 361 0
20 98 43 183 43 l79 0 -20 33 c-27 42 -79 174 -87 220 -4 20 -10 37 -14 37 -4
0 -31 -20 -60 -45 -29 -25 -56 -45 -59 -45 -4 0 -53 121 -108 269 l-101 270
74 85 c66 77 71 86 55 95 -16 9 -30 -3 -97 -81 l-78 -90 107 -286 107 -287
-21 -17 c-12 -10 -25 -18 -29 -18 -6 0 -241 618 -241 634 0 5 28 41 63 80 35
39 67 77 71 84 6 9 -62 12 -324 12 l-331 0 20 -27z m244 -336 l17 -53 -93
-245 -93 -246 62 -66 c34 -36 88 -99 119 -141 l57 -75 -22 -31 c-12 -16 -24
-30 -28 -30 -4 0 -17 15 -28 33 -27 40 -150 197 -205 259 l-41 46 114 301 c62
165 116 301 119 301 3 0 13 -24 22 -53z m147 -387 c50 -134 89 -250 88 -256
-5 -21 -140 -156 -148 -147 -3 4 -24 33 -45 63 -22 30 -65 85 -97 121 -32 37
-58 72 -58 78 0 6 25 77 56 158 31 81 65 172 76 202 15 40 23 50 29 39 4 -8
49 -125 99 -258z"/>
<path d="M14685 7494 c-151 -17 -317 -65 -444 -128 l-63 -32 58 -30 59 -29 3
-302 2 -303 -72 0 -73 0 -17 -58 c-9 -32 -20 -65 -23 -73 -5 -14 3 -13 62 2
37 10 80 18 96 18 24 1 27 -3 27 -32 0 -32 -1 -33 -70 -51 -65 -16 -89 -30
-77 -43 3 -2 30 2 60 11 94 27 87 43 87 -188 l0 -204 -77 -71 -78 -71 269 0
269 0 -71 74 -72 74 0 271 c0 149 3 271 8 271 15 0 268 41 282 45 18 6 45 -54
32 -67 -7 -7 -137 -37 -229 -54 l-23 -4 0 -243 0 -243 85 -91 c47 -50 85 -94
85 -97 0 -3 -128 -6 -285 -6 -249 0 -284 -2 -279 -15 5 -13 50 -15 320 -15
173 0 314 3 314 6 0 3 -47 56 -105 117 l-105 112 2 224 3 224 90 22 c50 12
102 27 117 33 27 11 29 10 44 -26 67 -159 135 -399 184 -648 17 -87 32 -159
33 -160 1 -1 46 24 100 56 54 31 141 75 193 96 l94 38 -49 43 c-64 56 -156
171 -244 303 -77 116 -207 373 -210 415 -2 25 4 29 74 55 207 76 319 210 319
383 0 174 -133 308 -365 367 -79 20 -257 33 -340 24z m185 -100 c79 -18 135
-50 183 -103 52 -58 69 -97 75 -172 13 -190 -110 -318 -375 -385 -52 -13 -99
-24 -104 -24 -5 0 -9 128 -9 285 l0 285 26 10 c39 15 184 12 242 -5 28 -9 81
-35 116 -59 71 -47 75 -32 7 26 -63 54 -129 73 -256 73 -60 0 -122 -3 -137 -8
l-28 -7 0 -299 0 -299 -27 -5 c-16 -3 -31 -3 -35 0 -5 2 -8 150 -8 328 0 372
-10 335 103 360 83 18 149 18 227 -1z"/>
<path d="M6948 7402 l82 -77 0 -528 c0 -546 -5 -639 -41 -708 -24 -49 -71 -95
-144 -141 l-60 -38 271 0 272 0 16 -25 c9 -13 16 -29 16 -35 0 -7 -99 -10
-297 -10 -266 0 -296 -2 -282 -15 13 -13 60 -15 332 -13 l317 3 -69 85 c-112
137 -122 155 -132 267 -10 119 -12 719 -2 709 4 -4 80 -222 169 -484 l162
-477 43 0 44 0 216 599 c120 329 222 608 227 620 8 16 11 2 11 -64 l1 -85
-195 -545 c-108 -300 -200 -557 -206 -572 -10 -25 -16 -28 -60 -28 -38 0 -49
-4 -49 -15 0 -13 11 -15 62 -13 l61 3 186 512 c102 281 189 515 194 519 4 4 7
-172 7 -392 l-1 -399 -85 -72 -86 -73 280 0 280 0 -74 72 -74 71 0 627 0 626
61 59 c33 33 69 72 80 88 l20 27 -306 0 -307 0 71 -79 c39 -43 71 -84 71 -90
0 -26 -304 -851 -311 -844 -4 4 -51 136 -104 293 -53 157 -116 342 -140 411
l-43 127 74 52 c65 45 84 70 53 70 -8 0 -159 -108 -159 -114 0 -1 70 -204 155
-451 97 -281 153 -456 149 -469 -4 -10 -13 -35 -21 -55 l-15 -36 -173 510
-174 510 32 29 c18 16 58 53 90 83 l58 53 -318 0 -318 -1 83 -77z m213 -312
c23 -64 23 -74 29 -525 5 -451 5 -461 28 -509 12 -27 41 -67 64 -88 49 -45 33
-49 -38 -9 -113 65 -115 79 -121 706 -3 326 -1 506 5 500 5 -5 20 -39 33 -75z"/>
<path d="M12607 7462 c12 -9 53 -42 92 -72 l70 -55 1 -261 0 -261 -60 -12
c-74 -15 -135 -59 -166 -121 -30 -59 -30 -65 4 -42 49 35 93 53 145 62 64 10
77 5 77 -30 0 -25 -4 -28 -47 -34 -66 -9 -154 -51 -147 -70 5 -12 14 -10 57 9
29 13 71 27 95 31 l42 7 0 -274 -1 -274 -84 -64 c-47 -35 -85 -65 -85 -67 0
-2 304 -4 676 -4 l676 0 -53 58 c-75 82 -116 150 -147 247 -15 46 -29 84 -32
85 -3 0 -27 -39 -55 -86 -57 -99 -116 -156 -183 -178 -66 -22 -172 -36 -274
-36 l-88 0 0 300 0 300 131 0 c116 0 130 2 119 15 -10 12 -40 15 -146 15
l-134 0 0 -315 0 -315 -35 0 -35 0 0 340 0 340 164 0 164 0 79 -100 78 -101 3
131 c1 71 1 190 0 262 l-3 133 -78 -107 -79 -108 -114 0 -114 0 0 230 0 229
35 7 c20 3 93 4 163 2 140 -5 156 -10 250 -79 28 -22 52 -37 52 -34 0 4 -14
24 -32 46 -65 81 -186 112 -405 101 l-93 -4 0 -249 0 -249 -35 0 -35 0 0 279
0 279 87 7 c112 10 285 -1 353 -21 68 -20 133 -85 179 -178 l33 -69 30 67 c37
84 83 164 142 244 l46 62 -653 0 c-619 0 -651 -1 -630 -18z"/>
<path d="M13866 7333 c-77 -110 -153 -260 -139 -274 9 -9 21 8 49 62 34 68
111 190 155 248 18 23 17 41 -1 41 -5 0 -34 -35 -64 -77z"/>
<path d="M8475 7353 l-70 -48 -3 -633 -2 -634 87 -96 88 -97 -294 -3 c-227 -2
-292 -5 -288 -15 3 -9 82 -13 331 -15 l328 -2 -106 119 -106 119 0 620 0 619
65 44 c60 41 73 58 49 66 -5 2 -41 -18 -79 -44z"/>
<path d="M15418 7255 c35 -76 37 -85 37 -180 0 -87 -3 -107 -26 -156 -15 -31
-44 -76 -65 -99 -45 -50 -164 -131 -228 -155 l-45 -17 20 -52 c36 -91 128
-267 183 -351 75 -112 190 -239 275 -305 39 -30 71 -58 71 -61 0 -3 -26 -13
-57 -23 -143 -45 -423 -181 -423 -207 0 -19 33 -8 102 33 88 52 260 127 366
159 45 13 82 26 82 29 -1 3 -31 25 -67 50 -174 117 -361 354 -459 580 -56 130
-58 122 37 171 109 57 190 132 231 217 31 62 33 73 33 172 0 93 -3 111 -27
160 -14 30 -38 69 -52 85 -23 27 -22 22 12 -50z"/>
<path d="M10450 7101 c0 -21 55 -160 91 -233 22 -43 39 -81 39 -85 0 -5 -37
-6 -83 -3 -114 8 -193 0 -190 -20 2 -12 63 -174 234 -627 17 -44 37 -67 142
-159 67 -59 123 -111 125 -115 2 -5 -168 -10 -378 -11 -362 -3 -380 -4 -368
-21 12 -16 42 -17 434 -15 l421 3 -161 142 -161 142 -97 258 c-54 142 -109
289 -123 327 l-26 69 83 -7 c46 -4 114 -9 152 -13 l69 -6 -46 84 c-25 46 -62
127 -82 179 -21 52 -42 101 -47 108 -12 14 -28 16 -28 3z"/>
<path d="M13562 6728 c2 -206 6 -272 16 -276 9 -3 12 55 12 266 0 232 -2 271
-15 276 -14 5 -15 -27 -13 -266z"/>
<path d="M13844 6192 c41 -80 89 -147 160 -220 l51 -53 -20 -37 -20 -37 -667
-3 c-587 -2 -667 -4 -662 -17 5 -13 91 -15 674 -15 522 0 670 3 677 13 6 6 21
31 33 55 l24 42 -51 53 c-69 72 -126 147 -169 223 -50 90 -75 86 -30 -4z"/>
</g>
</svg>
